# Blender 4.2.1 LTS
# www.blender.org
mtllib buzzlightyLeftCalf.mtl
o buzzlightyLeftCalf_buzzlighty.002
v 0.098114 0.065298 -0.064757
v 0.069078 0.101949 -0.012738
v 0.069117 0.093572 -0.032547
v 0.113739 0.084560 -0.001890
v 0.125571 0.085084 -0.001896
v 0.113482 0.091434 -0.034137
v 0.125314 0.091958 -0.034143
v 0.126040 0.071323 -0.057321
v 0.127022 0.043813 -0.048252
v 0.114208 0.070798 -0.057315
v 0.115190 0.043288 -0.048246
v 0.115447 0.036414 -0.015999
v 0.127278 0.036939 -0.016005
v 0.114721 0.057050 0.007179
v 0.126553 0.057575 0.007173
v 0.126040 0.071323 -0.057321
v 0.125314 0.091958 -0.034143
v 0.126553 0.057575 0.007173
v 0.125571 0.085084 -0.001896
v 0.114208 0.070798 -0.057315
v 0.127022 0.043813 -0.048252
v 0.115190 0.043288 -0.048246
v 0.127278 0.036939 -0.016005
v 0.127022 0.043813 -0.048252
v 0.115190 0.043288 -0.048246
v 0.115447 0.036414 -0.015999
v 0.014231 0.081884 -0.001844
v 0.026064 0.082409 -0.001850
v 0.013975 0.088759 -0.034095
v 0.025808 0.089284 -0.034101
v 0.026534 0.068645 -0.057282
v 0.027516 0.041132 -0.048212
v 0.014700 0.068120 -0.057276
v 0.015682 0.040607 -0.048206
v 0.015939 0.033732 -0.015955
v 0.027772 0.034249 -0.015959
v 0.015213 0.054371 0.007226
v 0.027047 0.054895 0.007220
v 0.026534 0.068645 -0.057282
v 0.025808 0.089284 -0.034101
v 0.027047 0.054895 0.007220
v 0.026064 0.082409 -0.001850
v 0.014231 0.081884 -0.001844
v 0.013975 0.088759 -0.034095
v 0.015213 0.054371 0.007226
v 0.014700 0.068120 -0.057276
v 0.027516 0.041132 -0.048212
v 0.015682 0.040607 -0.048206
v 0.027772 0.034249 -0.015959
v 0.027516 0.041132 -0.048212
v 0.015682 0.040607 -0.048206
v 0.015939 0.033732 -0.015955
v 0.113739 0.084560 -0.001890
v 0.113482 0.091434 -0.034137
v 0.114721 0.057050 0.007179
v 0.114208 0.070798 -0.057315
v 0.115447 0.036414 -0.015999
v 0.026054 0.069384 0.031799
v 0.026850 0.197122 -0.013824
v 0.020045 0.050285 -0.024192
v 0.066389 0.178435 -0.047234
v 0.045882 0.181246 -0.041716
v 0.065934 0.189438 0.013484
v 0.091211 0.188716 0.042366
v 0.066599 0.174725 0.049367
v 0.113424 0.074088 0.036511
v 0.069993 0.078628 0.052330
v 0.099456 0.225344 0.027646
v 0.091211 0.188716 0.042366
v 0.104192 0.199889 -0.013853
v 0.113424 0.074088 0.036511
v 0.086589 0.182703 -0.041731
v 0.104192 0.199889 -0.013853
v 0.044234 0.215085 0.050485
v 0.026059 0.217515 0.019653
v 0.041387 0.187221 0.042381
v 0.064788 0.215933 0.061233
v 0.066599 0.174725 0.049367
v 0.026850 0.197122 -0.013824
v 0.045882 0.181246 -0.041716
v 0.020045 0.050285 -0.024192
v 0.033190 0.071435 -0.078140
v 0.045882 0.181246 -0.041716
v 0.066389 0.178435 -0.047234
v 0.033190 0.071435 -0.078140
v 0.069832 0.081068 -0.098422
v 0.107668 0.074378 -0.078175
v 0.086589 0.182703 -0.041731
v 0.121950 0.054362 -0.024238
v 0.104192 0.199889 -0.013853
v 0.091211 0.188716 0.042366
v 0.085344 0.216556 0.050469
v 0.088162 0.247325 0.045082
v 0.099456 0.225344 0.027646
v 0.099456 0.225344 0.027646
v 0.088162 0.247325 0.045082
v 0.026059 0.217515 0.019653
v 0.038710 0.245556 0.045101
v 0.026850 0.197122 -0.013824
v 0.062792 0.261117 0.055767
v 0.062792 0.261117 0.055767
v 0.038710 0.245556 0.045101
v 0.069993 0.078628 0.052330
v 0.069389 0.067697 0.040097
v 0.113424 0.074088 0.036511
v 0.103569 0.065166 0.022624
v 0.086589 0.182703 -0.041731
v 0.107668 0.074378 -0.078175
v 0.107668 0.074378 -0.078175
v 0.121950 0.054362 -0.024238
v 0.098114 0.065298 -0.064757
v 0.117810 0.045117 -0.025086
v 0.069832 0.081068 -0.098422
v 0.069227 0.070400 -0.087343
v 0.033190 0.071435 -0.078140
v 0.039991 0.060669 -0.067631
v 0.024606 0.043177 -0.024669
v 0.020045 0.050285 -0.024192
v 0.032993 0.059693 0.020556
v 0.026054 0.069384 0.031799
v 0.026054 0.069384 0.031799
v 0.041387 0.187221 0.042381
v 0.098114 0.065298 -0.064757
v 0.117810 0.045117 -0.025086
v 0.069077 0.101949 -0.012738
v 0.103569 0.065166 0.022624
v 0.069389 0.067697 0.040097
v 0.032993 0.059693 0.020556
v 0.024606 0.043177 -0.024669
v 0.039991 0.060669 -0.067631
v 0.069227 0.070400 -0.087343
v 0.069117 0.093572 -0.032547
v 0.041387 0.187221 0.042381
v 0.026059 0.217515 0.019653
v 0.121950 0.054362 -0.024238
v 0.038349 0.220472 0.019635
v 0.026767 0.215200 -0.008037
v 0.039415 0.193671 0.009907
v 0.062664 0.255967 0.006354
v 0.088743 0.244573 0.001940
v 0.063091 0.248958 -0.034093
v 0.089035 0.239785 -0.025685
v 0.064651 0.209719 -0.048335
v 0.090101 0.212984 -0.035413
v 0.039706 0.188884 -0.017718
v 0.089517 0.222559 0.019838
v 0.101683 0.218256 -0.007741
v 0.088743 0.244573 0.001940
v 0.089035 0.239785 -0.025685
v 0.090101 0.212984 -0.035413
v 0.090583 0.195759 0.010110
v 0.037866 0.237698 -0.025888
v 0.037574 0.242485 0.001738
v 0.038932 0.210897 -0.035615
v 0.037866 0.237698 -0.025888
v 0.038932 0.210897 -0.035615
v 0.037574 0.242485 0.001738
v 0.038349 0.220472 0.019635
v 0.063798 0.223738 0.032557
v 0.090875 0.190971 -0.017515
v 0.065785 0.177489 -0.022131
v 0.065358 0.184499 0.018315
v 0.039706 0.188884 -0.017718
v 0.039415 0.193671 0.009907
v 0.063798 0.223738 0.032557
v 0.038349 0.220472 0.019635
v 0.089517 0.222559 0.019838
v 0.090583 0.195759 0.010110
v 0.089517 0.222559 0.019838
v 0.090875 0.190971 -0.017515
vn -0.4228 -0.8349 0.3523
vn -0.0325 0.7423 0.6692
vn -0.0326 0.7448 0.6665
vn -0.0429 0.9656 -0.2565
vn 0.0119 -0.2563 0.9665
vn -0.0429 0.9659 -0.2553
vn 0.0121 -0.2620 0.9650
vn -0.0121 0.2620 -0.9650
vn 0.0430 -0.9656 0.2565
vn -0.0119 0.2563 -0.9665
vn 0.0430 -0.9659 0.2553
vn 0.0134 -0.3126 -0.9498
vn 0.0432 -0.9770 -0.2086
vn 0.9994 0.0356 -0.0004
vn 0.9994 0.0355 -0.0004
vn -0.9994 -0.0355 0.0004
vn -0.0326 0.7423 0.6693
vn -0.0327 0.7448 0.6665
vn -0.0430 0.9656 -0.2565
vn 0.0118 -0.2562 0.9665
vn -0.0430 0.9659 -0.2553
vn 0.0120 -0.2618 0.9650
vn -0.0121 0.2619 -0.9650
vn 0.0424 -0.9656 0.2565
vn 0.0423 -0.9659 0.2553
vn 0.0431 -0.9770 -0.2088
vn 0.0432 -0.9770 -0.2088
vn 0.9994 0.0356 -0.0003
vn -0.9994 -0.0356 0.0004
vn -0.9898 0.0534 0.1323
vn -0.9760 -0.0588 0.2098
vn -0.9949 0.0395 0.0933
vn -0.9690 -0.0339 0.2447
vn -0.9256 -0.3327 0.1808
vn -0.0355 0.9833 -0.1785
vn 0.1946 0.9575 -0.2128
vn -0.0342 0.8312 -0.5549
vn -0.2635 0.9408 -0.2133
vn 0.4096 0.8429 -0.3490
vn -0.4773 0.8008 -0.3618
vn 0.3612 0.6581 -0.6606
vn -0.3372 0.6007 -0.7249
vn 0.1199 0.5308 -0.8389
vn -0.1274 0.5125 -0.8492
vn -0.0181 0.5074 -0.8615
vn 0.2718 0.0035 0.9624
vn 0.0146 0.0167 0.9998
vn 0.3313 0.0337 0.9429
vn -0.0308 0.0108 0.9995
vn -0.3121 0.0048 0.9500
vn -0.4185 -0.0271 0.9078
vn 0.9705 -0.1396 0.1964
vn 0.9701 0.0579 0.2355
vn 0.9769 0.0561 0.2061
vn 0.9824 0.1269 0.1368
vn 0.9883 0.1133 0.1019
vn -0.6550 -0.0700 0.7524
vn -0.8619 -0.0631 0.5031
vn -0.5938 -0.1912 0.7816
vn 0.0016 -0.0622 0.9981
vn -0.6235 0.0307 0.7812
vn 0.0099 -0.2763 0.9610
vn -0.0067 0.1198 0.9928
vn 0.5657 -0.1481 0.8112
vn 0.6024 0.0895 0.7932
vn 0.6475 -0.0068 0.7621
vn 0.8472 0.0186 0.5310
vn -0.8019 0.0790 -0.5922
vn -0.8511 0.0989 -0.5156
vn -0.9542 0.1539 -0.2564
vn -0.9708 0.1687 -0.1704
vn -0.2030 0.3293 -0.9221
vn -0.0139 0.3662 -0.9304
vn -0.4846 0.3782 -0.7887
vn -0.0228 0.4646 -0.8852
vn 0.4483 0.4135 -0.7925
vn 0.1782 0.3447 -0.9216
vn 0.9566 0.2412 -0.1638
vn 0.8437 0.1628 -0.5115
vn 0.9416 0.2254 -0.2501
vn 0.7963 0.1392 -0.5886
vn 0.0160 -0.7460 0.6658
vn -0.0023 -0.7691 0.6392
vn 0.2221 -0.8655 0.4489
vn -0.2723 -0.7973 0.5386
vn 0.2892 -0.8737 0.3911
vn -0.4212 -0.7930 0.4402
vn 0.8604 -0.5074 -0.0471
vn -0.8154 -0.5769 -0.0483
vn 0.9110 -0.3981 -0.1074
vn -0.8409 -0.5334 -0.0922
vn 0.2776 -0.8571 -0.4339
vn -0.4194 -0.7465 -0.5165
vn 0.2305 -0.8531 -0.4680
vn -0.2998 -0.7505 -0.5889
vn 0.0110 -0.7465 -0.6653
vn 0.0329 -0.7208 -0.6923
vn -0.6014 -0.7714 0.2079
vn -0.7534 -0.6560 0.0456
vn 0.0960 -0.9894 -0.1087
vn -0.5880 -0.7748 -0.2324
vn 0.6472 -0.7333 0.2085
vn 0.3571 -0.8600 0.3644
vn -0.6013 -0.7715 0.2079
vn 0.0701 -0.9187 0.3886
vn 0.0676 -0.8370 -0.5430
vn 0.7908 -0.6096 0.0551
vn 0.6641 -0.7215 -0.1960
vn -0.9241 0.0300 0.3811
vn -0.9992 -0.0388 -0.0039
vn -0.9112 -0.3322 0.2437
vn -0.9369 0.3244 0.1303
vn -0.9080 -0.3957 -0.1378
vn -0.9322 0.2611 -0.2505
vn -0.9160 -0.1004 -0.3884
vn -0.0389 0.9361 0.3495
vn 0.4243 0.8490 0.3150
vn -0.0282 0.7672 -0.6408
vn -0.4936 0.8121 0.3113
vn 0.4319 0.6980 -0.5712
vn -0.0291 0.6300 0.7761
vn 0.0106 -0.1667 -0.9860
vn -0.4821 0.6612 -0.5747
vn -0.4311 0.5600 0.7075
vn 0.3790 0.5918 0.7115
vn 0.4621 -0.1293 -0.8774
vn -0.4433 -0.1655 -0.8810
vn 0.4936 -0.8121 -0.3113
vn -0.4243 -0.8490 -0.3150
vn 0.0389 -0.9361 -0.3495
vn 0.0282 -0.7672 0.6408
vn 0.4821 -0.6612 0.5748
vn -0.4319 -0.6980 0.5712
vn 0.0107 -0.3408 0.9401
vn 0.4124 -0.2963 0.8615
vn -0.3940 -0.3274 0.8588
vn 0.9160 0.1004 0.3884
vn 0.9992 0.0387 0.0039
vn 0.9080 0.3957 0.1378
vn 0.9322 -0.2611 0.2505
vn 0.9112 0.3322 -0.2437
vn 0.9369 -0.3244 -0.1303
vn 0.9241 -0.0300 -0.3811
vt 0.400813 0.366847
vt 0.400581 0.376772
vt 0.374864 0.393670
vt 0.841451 0.788160
vt 0.847645 0.787917
vt 0.841450 0.776705
vt 0.847639 0.798767
vt 0.847644 0.776793
vt 0.841450 0.799091
vt 0.847644 0.765824
vt 0.847644 0.809972
vt 0.841450 0.765502
vt 0.841450 0.810063
vt 0.847644 0.754894
vt 0.841449 0.754651
vt 0.841450 0.821184
vt 0.847645 0.821427
vt 0.800675 0.151665
vt 0.773122 0.104117
vt 0.699550 0.151665
vt 0.724151 0.104117
vt 0.723544 0.104117
vt 0.773729 0.104117
vt 0.773550 0.104117
vt 0.723971 0.104117
vt 0.800496 0.151665
vt 0.723364 0.104117
vt 0.772943 0.104117
vt 0.699371 0.151665
vt 0.485583 0.115220
vt 0.563314 0.306248
vt 0.564404 0.115220
vt 0.488557 0.272005
vt 0.501641 0.327445
vt 0.162367 0.860346
vt 0.192157 0.852987
vt 0.140572 0.812586
vt 0.129706 0.856117
vt 0.212702 0.823052
vt 0.094047 0.828998
vt 0.203605 0.788499
vt 0.088577 0.785701
vt 0.178115 0.756370
vt 0.102249 0.760172
vt 0.140329 0.744711
vt 0.525791 0.271163
vt 0.570274 0.249479
vt 0.495432 0.115220
vt 0.570274 0.115220
vt 0.497281 0.327445
vt 0.484197 0.274277
vt 0.558954 0.306248
vt 0.481223 0.115220
vt 0.560044 0.115220
vt 0.534084 0.230050
vt 0.472791 0.234148
vt 0.527845 0.190098
vt 0.570553 0.230369
vt 0.523339 0.262858
vt 0.570543 0.182279
vt 0.570448 0.277475
vt 0.526872 0.190087
vt 0.522275 0.262766
vt 0.533129 0.230012
vt 0.479448 0.240484
vt 0.501405 0.307632
vt 0.550454 0.289533
vt 0.475278 0.115220
vt 0.538389 0.115220
vt 0.534465 0.289770
vt 0.569740 0.284765
vt 0.505381 0.115220
vt 0.569740 0.115220
vt 0.400030 0.330149
vt 0.399815 0.343772
vt 0.366962 0.340087
vt 0.433529 0.342795
vt 0.377441 0.350185
vt 0.423643 0.353938
vt 0.352941 0.373828
vt 0.441954 0.373828
vt 0.367751 0.374257
vt 0.429139 0.374078
vt 0.425236 0.394970
vt 0.364740 0.401048
vt 0.433253 0.401561
vt 0.399939 0.404228
vt 0.400428 0.417995
vt 0.450962 0.940219
vt 0.471094 0.904122
vt 0.490743 0.940540
vt 0.429759 0.904122
vt 0.511346 0.904122
vt 0.450001 0.940047
vt 0.491524 0.940922
vt 0.582794 0.677293
vt 0.582794 0.717669
vt 0.568077 0.677293
vt 0.568077 0.717669
vt 0.597841 0.677293
vt 0.553457 0.677293
vt 0.597841 0.717669
vt 0.553457 0.717669
vt 0.538804 0.717669
vt 0.538804 0.677293
vt 0.523998 0.677293
vt 0.523998 0.717669
vt 0.512596 0.677293
vt 0.512596 0.717669
vt 0.429238 0.904122
vt 0.470572 0.904122
vt 0.450440 0.940176
vt 0.449479 0.940003
vt 0.490221 0.940496
vt 0.491002 0.940878
vt 0.510825 0.904122
s 1
g buzzlightyLeftCalf_buzzlighty.002_Material.010
usemtl Material.010
f 2/1/1 3/2/1 1/3/1
f 4/4/2 5/5/3 6/6/4
f 4/4/2 15/7/5 5/5/3
f 6/6/4 5/5/3 7/8/6
f 14/9/7 15/7/5 4/4/2
f 7/8/6 8/10/8 6/6/4
f 14/9/7 13/11/9 15/7/5
f 6/6/4 8/10/8 10/12/10
f 12/13/11 13/11/9 14/9/7
f 8/10/8 9/14/12 10/12/10
f 10/12/10 9/14/12 11/15/12
f 22/16/13 13/11/9 12/13/11
f 21/17/13 13/11/9 22/16/13
f 16/18/14 17/19/14 18/20/15
f 18/20/15 23/21/15 16/18/14
f 18/20/15 17/19/14 19/22/15
f 16/18/14 23/21/15 24/23/14
f 25/24/16 26/25/16 20/26/16
f 27/4/17 28/5/18 29/6/19
f 27/4/17 38/7/20 28/5/18
f 29/6/19 28/5/18 30/8/21
f 37/9/22 38/7/20 27/4/17
f 30/8/21 31/10/23 29/6/19
f 37/9/22 36/11/24 38/7/20
f 29/6/19 31/10/23 33/12/10
f 35/13/25 36/11/24 37/9/22
f 31/10/23 32/14/12 33/12/10
f 33/12/10 32/14/12 34/15/12
f 48/16/26 36/11/24 35/13/25
f 47/17/27 36/11/24 48/16/26
f 39/18/14 40/19/14 41/20/15
f 41/20/15 49/21/15 39/18/14
f 41/20/15 40/19/14 42/22/28
f 39/18/14 49/21/15 50/23/28
f 43/27/29 44/28/16 45/29/29
f 45/29/29 44/28/16 46/26/16
f 46/26/16 52/25/29 45/29/29
f 51/24/16 52/25/29 46/26/16
f 53/27/16 54/28/29 55/29/29
f 55/29/29 54/28/29 56/26/29
f 56/26/29 57/25/29 55/29/29
f 58/30/30 59/31/31 60/32/32
f 58/30/30 133/33/33 59/31/31
f 59/31/31 133/33/33 134/34/34
f 61/35/35 62/36/36 63/37/37
f 61/35/35 63/37/37 72/38/38
f 62/36/36 99/39/39 63/37/37
f 72/38/38 63/37/37 73/40/40
f 99/39/39 97/41/41 63/37/37
f 63/37/37 94/42/42 73/40/40
f 97/41/41 98/43/43 63/37/37
f 63/37/37 93/44/44 94/42/42
f 63/37/37 98/43/43 101/45/45
f 93/44/44 63/37/37 101/45/45
f 64/46/46 65/47/47 66/48/48
f 66/48/48 65/47/47 67/49/49
f 122/46/50 67/49/49 65/47/47
f 121/48/51 67/49/49 122/46/50
f 68/50/52 69/51/53 70/52/54
f 70/52/54 69/51/53 71/53/55
f 71/53/55 135/54/56 70/52/54
f 74/55/57 75/56/58 76/57/59
f 74/55/57 76/57/59 77/58/60
f 75/56/58 74/55/57 102/59/61
f 74/55/57 77/58/60 102/59/61
f 77/58/60 76/57/59 78/60/62
f 102/59/61 77/58/60 100/61/63
f 78/60/62 91/62/64 77/58/60
f 100/61/63 77/58/60 96/63/65
f 77/58/60 91/62/64 92/64/66
f 96/63/65 77/58/60 92/64/66
f 92/64/66 91/62/64 95/65/67
f 92/64/66 95/65/67 96/63/65
f 79/66/68 80/67/69 81/68/70
f 81/68/70 80/67/69 82/69/71
f 83/70/72 84/71/73 85/72/74
f 85/72/74 84/71/73 86/73/75
f 84/71/73 108/72/76 86/73/75
f 107/70/77 108/72/76 84/71/73
f 87/69/78 88/67/79 89/68/80
f 89/68/80 88/67/79 90/66/81
f 103/74/82 104/75/83 105/76/84
f 103/74/82 120/77/85 104/75/83
f 105/76/84 104/75/83 106/78/86
f 104/75/83 120/77/85 119/79/87
f 105/76/84 106/78/86 110/80/88
f 118/81/89 119/79/87 120/77/85
f 110/80/88 106/78/86 112/82/90
f 117/83/91 119/79/87 118/81/89
f 111/3/92 110/80/88 112/82/90
f 117/83/91 118/81/89 116/84/93
f 109/85/94 110/80/88 111/3/92
f 116/84/93 118/81/89 115/86/95
f 114/87/96 109/85/94 111/3/92
f 115/86/95 114/87/96 116/84/93
f 113/88/97 109/85/94 114/87/96
f 113/88/97 114/87/96 115/86/95
f 123/3/98 124/82/99 125/1/100
f 126/78/101 125/1/100 124/82/99
f 130/84/102 132/2/103 125/1/100
f 123/3/104 132/2/103 131/87/105
f 131/87/105 132/2/103 130/84/102
f 127/75/106 125/1/100 126/78/101
f 125/1/100 129/83/107 130/84/102
f 128/79/108 125/1/100 127/75/106
f 125/1/100 128/79/108 129/83/107
f 136/89/109 137/90/110 138/91/111
f 153/92/112 137/90/110 136/89/109
f 138/91/111 137/90/110 145/93/113
f 152/94/114 137/90/110 153/92/112
f 145/93/113 137/90/110 154/95/115
f 154/95/115 137/90/110 152/94/114
f 139/96/116 140/97/117 141/98/118
f 139/96/116 141/98/118 157/97/119
f 141/98/118 140/97/117 142/99/120
f 157/97/119 159/100/121 139/96/116
f 159/100/121 140/97/117 139/96/116
f 141/98/118 142/99/120 143/101/122
f 157/97/119 141/98/118 155/99/123
f 141/98/118 143/101/122 155/99/123
f 158/102/124 159/100/121 157/97/119
f 167/102/125 140/97/117 159/100/121
f 143/101/122 142/99/120 144/103/126
f 155/99/123 143/101/122 156/103/127
f 144/103/126 170/104/128 143/101/122
f 156/103/127 143/101/122 163/104/129
f 143/101/122 170/104/128 161/105/130
f 163/104/129 143/101/122 161/105/130
f 161/105/130 170/104/128 162/106/131
f 161/105/130 162/106/131 163/104/129
f 162/106/131 170/104/128 168/107/132
f 163/104/129 162/106/131 164/107/133
f 162/106/131 168/107/132 165/108/134
f 162/106/131 165/108/134 164/107/133
f 165/108/134 168/107/132 169/109/135
f 164/107/133 165/108/134 166/109/136
f 146/110/137 147/111/138 148/112/139
f 151/113/140 147/111/138 146/110/137
f 148/112/139 147/111/138 149/114/141
f 160/115/142 147/111/138 151/113/140
f 149/114/141 147/111/138 150/116/143
f 150/116/143 147/111/138 160/115/142
